<?xml version="1.0" encoding="utf-8"?>
<!-- Generator: Adobe Illustrator 16.0.4, SVG Export Plug-In . SVG Version: 6.00 Build 0)  -->
<svg version="1.2" baseProfile="tiny" id="Layer_1" xmlns="http://www.w3.org/2000/svg" xmlns:xlink="http://www.w3.org/1999/xlink"
	 x="0px" y="0px" width="289px" height="10px" viewBox="0 0 289 10" xml:space="preserve">
<g display="none">
	<text transform="matrix(1 0 0 1 0 10.3359)" display="inline" fill="#FFFFFF" font-family="'Interstate-Bold'" font-size="12.16">C</text>
	
		<text transform="matrix(1 0 0 1 8.147 10.3359)" display="inline" fill="#FFFFFF" font-family="'Interstate-Bold'" font-size="12.16">L</text>
	
		<text transform="matrix(1 0 0 1 15.3569 10.3359)" display="inline" fill="#FFFFFF" font-family="'Interstate-Bold'" font-size="12.16">O</text>
	
		<text transform="matrix(1 0 0 1 24.0391 10.3359)" display="inline" fill="#FFFFFF" font-family="'Interstate-Bold'" font-size="12.16">U</text>
	
		<text transform="matrix(1 0 0 1 33.001 10.3359)" display="inline" fill="#FFFFFF" font-family="'Interstate-Bold'" font-size="12.16">D</text>
	
		<text transform="matrix(1 0 0 1 41.5977 10.3359)" display="inline" fill="#FFFFFF" font-family="'Interstate-Bold'" font-size="12.16">F</text>
	
		<text transform="matrix(1 0 0 1 48.7852 10.3359)" display="inline" fill="#FFFFFF" font-family="'Interstate-Bold'" font-size="12.16">O</text>
	
		<text transform="matrix(1 0 0 1 57.4668 10.3359)" display="inline" fill="#FFFFFF" font-family="'Interstate-Bold'" font-size="12.16">R</text>
	
		<text transform="matrix(1 0 0 1 66.1494 10.3359)" display="inline" fill="#FFFFFF" font-family="'Interstate-Bold'" font-size="12.16">M</text>
	
		<text transform="matrix(1 0 0 1 76.3027 10.3359)" display="inline" fill="#FFFFFF" font-family="'Interstate-Bold'" font-size="12.16">S</text>
	
		<text transform="matrix(1 0 0 1 84.3408 10.3359)" display="inline" fill="#FFFFFF" font-family="'Interstate-Bold'" font-size="12.16"> </text>
	
		<text transform="matrix(1 0 0 1 87.8672 10.3359)" display="inline" fill="#FFFFFF" font-family="'Interstate-Bold'" font-size="12.16">M</text>
	
		<text transform="matrix(1 0 0 1 98.0205 10.3359)" display="inline" fill="#FFFFFF" font-family="'Interstate-Bold'" font-size="12.16">A</text>
	
		<text transform="matrix(1 0 0 1 107.1406 10.3359)" display="inline" fill="#FFFFFF" font-family="'Interstate-Bold'" font-size="12.16">N</text>
	
		<text transform="matrix(1 0 0 1 116.2236 10.3359)" display="inline" fill="#FFFFFF" font-family="'Interstate-Bold'" font-size="12.16">A</text>
	
		<text transform="matrix(1 0 0 1 125.041 10.3359)" display="inline" fill="#FFFFFF" font-family="'Interstate-Bold'" font-size="12.16">G</text>
	
		<text transform="matrix(1 0 0 1 133.5283 10.3359)" display="inline" fill="#FFFFFF" font-family="'Interstate-Bold'" font-size="12.16">E</text>
	
		<text transform="matrix(1 0 0 1 141.4326 10.3359)" display="inline" fill="#FFFFFF" font-family="'Interstate-Bold'" font-size="12.16">M</text>
	
		<text transform="matrix(1 0 0 1 151.5859 10.3359)" display="inline" fill="#FFFFFF" font-family="'Interstate-Bold'" font-size="12.16">E</text>
	
		<text transform="matrix(1 0 0 1 159.4902 10.3359)" display="inline" fill="#FFFFFF" font-family="'Interstate-Bold'" font-size="12.16">N</text>
	
		<text transform="matrix(1 0 0 1 168.5732 10.3359)" display="inline" fill="#FFFFFF" font-family="'Interstate-Bold'" font-size="12.16">T</text>
	
		<text transform="matrix(1 0 0 1 176.2588 10.3359)" display="inline" fill="#FFFFFF" font-family="'Interstate-Bold'" font-size="12.16"> </text>
	
		<text transform="matrix(1 0 0 1 179.7842 10.3359)" display="inline" fill="#FFFFFF" font-family="'Interstate-Bold'" font-size="12.16">E</text>
	
		<text transform="matrix(1 0 0 1 187.6885 10.3359)" display="inline" fill="#FFFFFF" font-family="'Interstate-Bold'" font-size="12.16">N</text>
	
		<text transform="matrix(1 0 0 1 196.7725 10.3359)" display="inline" fill="#FFFFFF" font-family="'Interstate-Bold'" font-size="12.16">G</text>
	
		<text transform="matrix(1 0 0 1 205.2598 10.3359)" display="inline" fill="#FFFFFF" font-family="'Interstate-Bold'" font-size="12.16">I</text>
	
		<text transform="matrix(1 0 0 1 209.3936 10.3359)" display="inline" fill="#FFFFFF" font-family="'Interstate-Bold'" font-size="12.16">N</text>
	
		<text transform="matrix(1 0 0 1 218.4775 10.3359)" display="inline" fill="#FFFFFF" font-family="'Interstate-Bold'" font-size="12.16">E</text>
</g>
<g display="none">
	
		<text transform="matrix(1 0 0 1 63.3047 9.7812)" display="inline" fill="#FFFFFF" font-family="'Interstate-Bold'" font-size="12.16">C</text>
	
		<text transform="matrix(1 0 0 1 71.1611 9.7812)" display="inline" fill="#FFFFFF" font-family="'Interstate-Bold'" font-size="12.16">O</text>
	
		<text transform="matrix(1 0 0 1 79.8433 9.7812)" display="inline" fill="#FFFFFF" font-family="'Interstate-Bold'" font-size="12.16">N</text>
	
		<text transform="matrix(1 0 0 1 88.9263 9.7812)" display="inline" fill="#FFFFFF" font-family="'Interstate-Bold'" font-size="12.16">S</text>
	
		<text transform="matrix(1 0 0 1 96.9644 9.7812)" display="inline" fill="#FFFFFF" font-family="'Interstate-Bold'" font-size="12.16">U</text>
	
		<text transform="matrix(1 0 0 1 105.9263 9.7812)" display="inline" fill="#FFFFFF" font-family="'Interstate-Bold'" font-size="12.16">L</text>
	
		<text transform="matrix(1 0 0 1 111.8594 9.7812)" display="inline" fill="#FFFFFF" font-family="'Interstate-Bold'" font-size="12.16">T</text>
	
		<text transform="matrix(1 0 0 1 119.5439 9.7812)" display="inline" fill="#FFFFFF" font-family="'Interstate-Bold'" font-size="12.16">I</text>
	
		<text transform="matrix(1 0 0 1 123.6787 9.7812)" display="inline" fill="#FFFFFF" font-family="'Interstate-Bold'" font-size="12.16">N</text>
	
		<text transform="matrix(1 0 0 1 132.7617 9.7812)" display="inline" fill="#FFFFFF" font-family="'Interstate-Bold'" font-size="12.16">G</text>
	
		<text transform="matrix(1 0 0 1 141.25 9.7812)" display="inline" fill="#FFFFFF" font-family="'Interstate-Bold'" font-size="12.16"> </text>
	
		<text transform="matrix(1 0 0 1 144.7764 9.7812)" display="inline" fill="#FFFFFF" font-family="'Interstate-Bold'" font-size="12.16">S</text>
	
		<text transform="matrix(1 0 0 1 152.8135 9.7812)" display="inline" fill="#FFFFFF" font-family="'Interstate-Bold'" font-size="12.16">E</text>
	
		<text transform="matrix(1 0 0 1 160.7178 9.7812)" display="inline" fill="#FFFFFF" font-family="'Interstate-Bold'" font-size="12.16">R</text>
	
		<text transform="matrix(1 0 0 1 169.0586 9.7812)" display="inline" fill="#FFFFFF" font-family="'Interstate-Bold'" font-size="12.16">V</text>
	
		<text transform="matrix(1 0 0 1 177.7402 9.7812)" display="inline" fill="#FFFFFF" font-family="'Interstate-Bold'" font-size="12.16">I</text>
	
		<text transform="matrix(1 0 0 1 181.875 9.7812)" display="inline" fill="#FFFFFF" font-family="'Interstate-Bold'" font-size="12.16">C</text>
	
		<text transform="matrix(1 0 0 1 190.0215 9.7812)" display="inline" fill="#FFFFFF" font-family="'Interstate-Bold'" font-size="12.16">E</text>
	
		<text transform="matrix(1 0 0 1 197.7451 9.7812)" display="inline" fill="#FFFFFF" font-family="'Interstate-Bold'" font-size="12.16">S</text>
	
		<text transform="matrix(1 0 0 1 205.7822 9.7812)" display="inline" fill="#FFFFFF" font-family="'Interstate-Bold'" font-size="12.16"> </text>
	
		<text transform="matrix(1 0 0 1 209.3086 9.7812)" display="inline" fill="#FFFFFF" font-family="'Interstate-Bold'" font-size="12.16">T</text>
	
		<text transform="matrix(1 0 0 1 216.9941 9.7812)" display="inline" fill="#FFFFFF" font-family="'Interstate-Bold'" font-size="12.16">I</text>
	
		<text transform="matrix(1 0 0 1 221.1279 9.7812)" display="inline" fill="#FFFFFF" font-family="'Interstate-Bold'" font-size="12.16">M</text>
	
		<text transform="matrix(1 0 0 1 231.2812 9.7812)" display="inline" fill="#FFFFFF" font-family="'Interstate-Bold'" font-size="12.16">E</text>
	
		<text transform="matrix(1 0 0 1 239.1855 9.7812)" display="inline" fill="#FFFFFF" font-family="'Interstate-Bold'" font-size="12.16">K</text>
	
		<text transform="matrix(1 0 0 1 247.9404 9.7812)" display="inline" fill="#FFFFFF" font-family="'Interstate-Bold'" font-size="12.16">E</text>
	
		<text transform="matrix(1 0 0 1 255.8447 9.7812)" display="inline" fill="#FFFFFF" font-family="'Interstate-Bold'" font-size="12.16">E</text>
	
		<text transform="matrix(1 0 0 1 263.748 9.7812)" display="inline" fill="#FFFFFF" font-family="'Interstate-Bold'" font-size="12.16">P</text>
	
		<text transform="matrix(1 0 0 1 272.0166 9.7812)" display="inline" fill="#FFFFFF" font-family="'Interstate-Bold'" font-size="12.16">E</text>
	
		<text transform="matrix(1 0 0 1 279.9209 9.7812)" display="inline" fill="#FFFFFF" font-family="'Interstate-Bold'" font-size="12.16">R</text>
</g>
<g display="none">
	
		<text transform="matrix(1 0 0 1 63.4844 9.6406)" display="inline" fill="#FFFFFF" font-family="'Interstate-Bold'" font-size="12.16">O</text>
	
		<text transform="matrix(1 0 0 1 72.1665 9.6406)" display="inline" fill="#FFFFFF" font-family="'Interstate-Bold'" font-size="12.16">P</text>
	
		<text transform="matrix(1 0 0 1 80.4351 9.6406)" display="inline" fill="#FFFFFF" font-family="'Interstate-Bold'" font-size="12.16">E</text>
	
		<text transform="matrix(1 0 0 1 88.3389 9.6406)" display="inline" fill="#FFFFFF" font-family="'Interstate-Bold'" font-size="12.16">N</text>
	
		<text transform="matrix(1 0 0 1 97.4224 9.6406)" display="inline" fill="#FFFFFF" font-family="'Interstate-Bold'" font-size="12.16">S</text>
	
		<text transform="matrix(1 0 0 1 105.1455 9.6406)" display="inline" fill="#FFFFFF" font-family="'Interstate-Bold'" font-size="12.16">T</text>
	
		<text transform="matrix(1 0 0 1 111.6758 9.6406)" display="inline" fill="#FFFFFF" font-family="'Interstate-Bold'" font-size="12.16">A</text>
	
		<text transform="matrix(1 0 0 1 120.4932 9.6406)" display="inline" fill="#FFFFFF" font-family="'Interstate-Bold'" font-size="12.16">C</text>
	
		<text transform="matrix(1 0 0 1 128.6396 9.6406)" display="inline" fill="#FFFFFF" font-family="'Interstate-Bold'" font-size="12.16">K</text>
	
		<text transform="matrix(1 0 0 1 137.3955 9.6406)" display="inline" fill="#FFFFFF" font-family="'Interstate-Bold'" font-size="12.16"> </text>
	
		<text transform="matrix(1 0 0 1 140.9219 9.6406)" display="inline" fill="#FFFFFF" font-family="'Interstate-Bold'" font-size="12.16">D</text>
	
		<text transform="matrix(1 0 0 1 149.1172 9.6406)" display="inline" fill="#FFFFFF" font-family="'Interstate-Bold'" font-size="12.16">A</text>
	
		<text transform="matrix(1 0 0 1 157.9346 9.6406)" display="inline" fill="#FFFFFF" font-family="'Interstate-Bold'" font-size="12.16">S</text>
	
		<text transform="matrix(1 0 0 1 165.9727 9.6406)" display="inline" fill="#FFFFFF" font-family="'Interstate-Bold'" font-size="12.16">H</text>
	
		<text transform="matrix(1 0 0 1 175.0557 9.6406)" display="inline" fill="#FFFFFF" font-family="'Interstate-Bold'" font-size="12.16">B</text>
	
		<text transform="matrix(1 0 0 1 183.6035 9.6406)" display="inline" fill="#FFFFFF" font-family="'Interstate-Bold'" font-size="12.16">O</text>
	
		<text transform="matrix(1 0 0 1 191.9824 9.6406)" display="inline" fill="#FFFFFF" font-family="'Interstate-Bold'" font-size="12.16">A</text>
	
		<text transform="matrix(1 0 0 1 201.1025 9.6406)" display="inline" fill="#FFFFFF" font-family="'Interstate-Bold'" font-size="12.16">R</text>
	
		<text transform="matrix(1 0 0 1 209.7852 9.6406)" display="inline" fill="#FFFFFF" font-family="'Interstate-Bold'" font-size="12.16">D</text>
</g>
<g>
	<g>
		<path fill="#FFFFFF" d="M4.653,9.781L3.263,6.91H2.312v2.871H0V1.266h3.808c0.494,0,0.947,0.051,1.356,0.152
			C5.574,1.52,5.925,1.68,6.217,1.897c0.292,0.22,0.518,0.505,0.676,0.857C7.05,3.108,7.129,3.534,7.129,4.039
			c0,0.641-0.138,1.163-0.414,1.568C6.438,6.014,6.064,6.32,5.592,6.531l1.707,3.25H4.653z M4.543,3.442
			c-0.159-0.17-0.428-0.256-0.801-0.256h-1.43v1.862h1.394c0.392,0,0.668-0.08,0.831-0.243C4.7,4.645,4.782,4.408,4.782,4.101
			C4.782,3.833,4.702,3.613,4.543,3.442z"/>
		<path fill="#FFFFFF" d="M8.71,9.781V1.266h6.521v1.983h-4.184v1.144h2.518V6.34h-2.518v1.459h4.269v1.982H8.71z"/>
		<path fill="#FFFFFF" d="M23.891,7.5c-0.193,0.549-0.484,0.988-0.874,1.326c-0.391,0.338-0.87,0.578-1.443,0.73
			c-0.57,0.148-1.234,0.225-1.988,0.225h-2.761V1.266h2.979c0.665,0,1.271,0.068,1.812,0.207c0.542,0.138,1.004,0.371,1.381,0.699
			s0.669,0.76,0.876,1.295c0.206,0.536,0.31,1.205,0.31,2.008C24.184,6.275,24.086,6.951,23.891,7.5z M21.66,4.503
			c-0.07-0.285-0.182-0.516-0.334-0.694c-0.155-0.179-0.358-0.31-0.608-0.396c-0.252-0.085-0.56-0.128-0.924-0.128h-0.586v4.478
			h0.512c0.365,0,0.678-0.039,0.937-0.115c0.259-0.076,0.472-0.203,0.638-0.377c0.167-0.174,0.286-0.404,0.359-0.693
			c0.073-0.287,0.109-0.643,0.109-1.064C21.763,5.122,21.729,4.785,21.66,4.503z"/>
		<path fill="#FFFFFF" d="M34.681,9.781V6.424H32.03v3.357h-2.409V1.266h2.409v3.103h2.651V1.266h2.409v8.516H34.681z"/>
		<path fill="#FFFFFF" d="M44.316,9.781l-0.462-1.498H41.3l-0.463,1.498h-2.53l3.09-8.516h2.385l3.089,8.516H44.316z M43.125,5.852
			c-0.073-0.277-0.139-0.515-0.195-0.719c-0.057-0.201-0.107-0.385-0.152-0.547c-0.045-0.162-0.083-0.311-0.115-0.443
			s-0.061-0.274-0.086-0.42c-0.023,0.146-0.052,0.288-0.085,0.425c-0.032,0.138-0.07,0.289-0.114,0.451
			c-0.045,0.161-0.096,0.344-0.153,0.547c-0.056,0.203-0.121,0.437-0.194,0.704L41.873,6.41h1.41L43.125,5.852z"/>
		<path fill="#FFFFFF" d="M51.324,3.322v6.459h-2.36V3.322h-2.385V1.266h7.129v2.057H51.324z"/>
		<path fill="#FFFFFF" d="M59.002,2.229c-0.081,0.194-0.192,0.363-0.337,0.506c-0.144,0.145-0.311,0.255-0.506,0.337
			c-0.195,0.081-0.405,0.122-0.632,0.122c-0.227,0-0.438-0.041-0.633-0.122s-0.364-0.191-0.507-0.337
			c-0.143-0.144-0.255-0.312-0.335-0.506c-0.082-0.194-0.123-0.405-0.123-0.632c0-0.228,0.041-0.439,0.123-0.633
			c0.079-0.194,0.191-0.363,0.335-0.506c0.144-0.144,0.312-0.256,0.507-0.336C57.089,0.041,57.3,0,57.527,0
			c0.227,0,0.438,0.041,0.632,0.123c0.194,0.079,0.363,0.191,0.506,0.336c0.144,0.143,0.255,0.312,0.337,0.506
			c0.081,0.192,0.122,0.405,0.122,0.633S59.083,2.035,59.002,2.229z M58.7,1.073c-0.065-0.158-0.153-0.293-0.265-0.404
			c-0.112-0.112-0.247-0.199-0.403-0.263c-0.156-0.062-0.323-0.093-0.504-0.093c-0.184,0-0.352,0.031-0.507,0.093
			c-0.156,0.062-0.289,0.148-0.4,0.263c-0.112,0.111-0.2,0.246-0.266,0.404c-0.064,0.157-0.097,0.331-0.097,0.524
			c0,0.191,0.032,0.366,0.097,0.522c0.065,0.159,0.153,0.294,0.266,0.405c0.111,0.111,0.245,0.199,0.4,0.262
			c0.155,0.062,0.323,0.094,0.507,0.094c0.181,0,0.348-0.031,0.504-0.094c0.157-0.062,0.291-0.148,0.403-0.262
			c0.111-0.111,0.199-0.246,0.265-0.405c0.064-0.156,0.097-0.331,0.097-0.522C58.796,1.404,58.764,1.23,58.7,1.073z M57.81,2.426
			l-0.282-0.584h-0.194v0.584H56.86V0.689h0.778c0.203,0,0.366,0.044,0.49,0.129c0.125,0.086,0.187,0.232,0.187,0.438
			c0,0.133-0.029,0.238-0.087,0.32c-0.057,0.081-0.132,0.145-0.227,0.188l0.344,0.659L57.81,2.426L57.81,2.426z M57.788,1.135
			c-0.033-0.034-0.088-0.051-0.164-0.051h-0.291V1.46h0.283c0.079,0,0.136-0.017,0.169-0.049c0.035-0.032,0.051-0.079,0.051-0.143
			C57.836,1.215,57.821,1.171,57.788,1.135z"/>
	</g>
	<g>
		<path fill="#FFFFFF" d="M69.264,3.749c-0.304-0.583-0.791-0.924-1.557-0.924c-1.277,0-2.006,1.119-2.006,2.699
			c0,1.532,0.742,2.7,2.019,2.7c0.766,0,1.216-0.328,1.666-1.082l1.435,0.851c-0.583,1.204-1.605,1.922-3.15,1.922
			c-2.225,0-3.721-1.702-3.721-4.391c0-2.59,1.557-4.39,3.782-4.39c1.605,0,2.578,0.778,3.113,1.885L69.264,3.749z"/>
		<path fill="#FFFFFF" d="M75.503,9.915c-2.323,0-3.697-1.8-3.697-4.391c0-2.59,1.374-4.39,3.697-4.39c2.323,0,3.697,1.8,3.697,4.39
			C79.2,8.115,77.826,9.915,75.503,9.915z M75.503,2.825c-1.375,0-1.946,1.18-1.946,2.699c0,1.521,0.571,2.7,1.946,2.7
			c1.374,0,1.946-1.18,1.946-2.7C77.449,4.005,76.877,2.825,75.503,2.825z"/>
		<path fill="#FFFFFF" d="M86.313,9.781l-3.125-4.646c-0.207-0.316-0.486-0.742-0.596-0.961c0,0.316,0.024,1.387,0.024,1.86v3.746
			h-1.678V1.269h1.629l3.016,4.499c0.207,0.316,0.486,0.742,0.596,0.961c0-0.316-0.024-1.386-0.024-1.86v-3.6h1.678v8.513H86.313z"
			/>
		<path fill="#FFFFFF" d="M92.915,9.915c-1.423,0-2.663-0.596-3.308-1.545l1.228-1.094c0.596,0.692,1.362,0.973,2.177,0.973
			c1.009,0,1.483-0.28,1.483-0.925c0-0.547-0.292-0.79-1.897-1.155c-1.569-0.364-2.664-0.863-2.664-2.542
			c0-1.544,1.362-2.493,3.041-2.493c1.326,0,2.298,0.499,3.101,1.337l-1.229,1.192c-0.547-0.56-1.155-0.875-1.934-0.875
			c-0.912,0-1.216,0.389-1.216,0.766c0,0.535,0.365,0.706,1.714,1.021c1.35,0.316,2.846,0.778,2.846,2.627
			C96.259,8.82,95.238,9.915,92.915,9.915z"/>
		<path fill="#FFFFFF" d="M101.439,9.915c-2.055,0-3.441-1.387-3.441-3.867V1.269h1.703v4.755c0,1.362,0.657,2.226,1.739,2.226
			c1.083,0,1.751-0.839,1.751-2.201V1.269h1.703v4.755C104.894,8.492,103.604,9.915,101.439,9.915z"/>
		<path fill="#FFFFFF" d="M107.021,9.781V1.269h1.702v6.834h4.269v1.679H107.021z"/>
		<path fill="#FFFFFF" d="M116.554,2.947v6.834h-1.703V2.947h-2.444V1.269h6.591v1.678H116.554z"/>
		<path fill="#FFFFFF" d="M120.76,9.781V1.269h1.703v8.513H120.76z"/>
		<path fill="#FFFFFF" d="M130.148,9.781l-3.125-4.646c-0.207-0.316-0.487-0.742-0.597-0.961c0,0.316,0.024,1.387,0.024,1.86v3.746
			h-1.678V1.269h1.63l3.016,4.499c0.207,0.316,0.486,0.742,0.596,0.961c0-0.316-0.024-1.386-0.024-1.86v-3.6h1.679v8.513H130.148z"
			/>
		<path fill="#FFFFFF" d="M137.128,9.915c-2.226,0-3.722-1.702-3.722-4.391c0-2.59,1.557-4.39,3.782-4.39
			c1.739,0,2.663,0.814,3.223,2.128l-1.617,0.669c-0.316-0.632-0.706-1.106-1.63-1.106c-1.277,0-2.007,1.119-2.007,2.699
			c0,1.569,0.742,2.725,2.019,2.725c1.168,0,1.569-0.547,1.667-1.289h-1.351V5.367h3.053v1.118
			C140.545,8.675,139.098,9.915,137.128,9.915z"/>
		<path fill="#FFFFFF" d="M148.766,9.915c-1.423,0-2.664-0.596-3.309-1.545l1.229-1.094c0.596,0.692,1.362,0.973,2.177,0.973
			c1.01,0,1.484-0.28,1.484-0.925c0-0.547-0.292-0.79-1.897-1.155c-1.569-0.364-2.663-0.863-2.663-2.542
			c0-1.544,1.361-2.493,3.04-2.493c1.325,0,2.299,0.499,3.101,1.337l-1.228,1.192c-0.548-0.56-1.155-0.875-1.934-0.875
			c-0.912,0-1.217,0.389-1.217,0.766c0,0.535,0.365,0.706,1.715,1.021c1.351,0.316,2.846,0.778,2.846,2.627
			C152.109,8.82,151.088,9.915,148.766,9.915z"/>
		<path fill="#FFFFFF" d="M153.908,9.781V1.269h5.91v1.666h-4.208v1.471h2.444V6.06h-2.444v2.056h4.391v1.666H153.908z"/>
		<path fill="#FFFFFF" d="M166.75,9.781l-1.521-3.064h-1.715v3.064h-1.702V1.269h3.964c1.605,0,2.932,0.888,2.932,2.7
			c0,1.277-0.548,2.08-1.63,2.505l1.63,3.308H166.75z M165.74,2.922h-2.226v2.189h2.226c0.791,0,1.216-0.365,1.216-1.106
			C166.956,3.238,166.494,2.922,165.74,2.922z"/>
		<path fill="#FFFFFF" d="M174.228,9.781h-1.654l-3.028-8.513h1.885l1.605,4.925c0.158,0.475,0.328,1.095,0.401,1.398
			c0.073-0.315,0.231-0.899,0.39-1.398l1.568-4.925h1.86L174.228,9.781z"/>
		<path fill="#FFFFFF" d="M178.956,9.781V1.269h1.703v8.513H178.956z"/>
		<path fill="#FFFFFF" d="M187.834,3.749c-0.304-0.583-0.79-0.924-1.557-0.924c-1.277,0-2.007,1.119-2.007,2.699
			c0,1.532,0.742,2.7,2.019,2.7c0.767,0,1.217-0.328,1.667-1.082l1.435,0.851c-0.584,1.204-1.605,1.922-3.149,1.922
			c-2.226,0-3.722-1.702-3.722-4.391c0-2.59,1.557-4.39,3.782-4.39c1.605,0,2.578,0.778,3.113,1.885L187.834,3.749z"/>
		<path fill="#FFFFFF" d="M191.116,9.781V1.269h5.91v1.666h-4.208v1.471h2.444V6.06h-2.444v2.056h4.391v1.666H191.116z"/>
		<path fill="#FFFFFF" d="M201.734,9.915c-1.423,0-2.664-0.596-3.309-1.545l1.229-1.094c0.596,0.692,1.362,0.973,2.177,0.973
			c1.01,0,1.484-0.28,1.484-0.925c0-0.547-0.292-0.79-1.897-1.155c-1.569-0.364-2.663-0.863-2.663-2.542
			c0-1.544,1.361-2.493,3.04-2.493c1.325,0,2.299,0.499,3.101,1.337l-1.228,1.192c-0.548-0.56-1.155-0.875-1.934-0.875
			c-0.912,0-1.217,0.389-1.217,0.766c0,0.535,0.365,0.706,1.715,1.021c1.351,0.316,2.846,0.778,2.846,2.627
			C205.078,8.82,204.057,9.915,201.734,9.915z"/>
		<path fill="#FFFFFF" d="M214.003,2.947v6.834H212.3V2.947h-2.444V1.269h6.592v1.678H214.003z"/>
		<path fill="#FFFFFF" d="M218.21,9.781V1.269h1.703v8.513H218.21z"/>
		<path fill="#FFFFFF" d="M228.485,9.781V6.656c0-0.463,0.024-1.545,0.024-1.873c-0.121,0.316-0.377,0.924-0.596,1.41l-1.728,3.782
			l-1.727-3.782c-0.219-0.486-0.475-1.094-0.596-1.41c0,0.328,0.024,1.41,0.024,1.873v3.125h-1.666V1.269h1.642l1.775,3.854
			c0.219,0.475,0.475,1.119,0.584,1.423c0.109-0.315,0.353-0.936,0.571-1.423l1.715-3.854h1.679v8.513H228.485z"/>
		<path fill="#FFFFFF" d="M232.376,9.781V1.269h5.91v1.666h-4.208v1.471h2.444V6.06h-2.444v2.056h4.391v1.666H232.376z"/>
		<path fill="#FFFFFF" d="M245.655,9.781l-2.311-4.11l-1.362,1.605v2.505h-1.702V1.269h1.702v2.42c0,0.316-0.012,1.083-0.024,1.35
			c0.122-0.195,0.438-0.584,0.669-0.864l2.384-2.906h2.056l-2.493,2.943l3.125,5.57H245.655z"/>
		<path fill="#FFFFFF" d="M249.035,9.781V1.269h5.91v1.666h-4.208v1.471h2.444V6.06h-2.444v2.056h4.391v1.666H249.035z"/>
		<path fill="#FFFFFF" d="M256.939,9.781V1.269h5.91v1.666h-4.208v1.471h2.444V6.06h-2.444v2.056h4.391v1.666H256.939z"/>
		<path fill="#FFFFFF" d="M268.418,6.766h-1.873v3.016h-1.702V1.269h3.721c1.605,0,2.932,0.888,2.932,2.7
			C271.495,5.938,270.182,6.766,268.418,6.766z M268.503,2.922h-1.958v2.189h1.982c0.791,0,1.216-0.365,1.216-1.106
			C269.743,3.263,269.257,2.922,268.503,2.922z"/>
		<path fill="#FFFFFF" d="M273.111,9.781V1.269h5.91v1.666h-4.208v1.471h2.444V6.06h-2.444v2.056h4.391v1.666H273.111z"/>
		<path fill="#FFFFFF" d="M285.953,9.781l-1.521-3.064h-1.715v3.064h-1.702V1.269h3.964c1.605,0,2.932,0.888,2.932,2.7
			c0,1.277-0.548,2.08-1.63,2.505l1.63,3.308H285.953z M284.943,2.922h-2.226v2.189h2.226c0.791,0,1.216-0.365,1.216-1.106
			C286.159,3.238,285.697,2.922,284.943,2.922z"/>
	</g>
	<g display="none">
		<path display="inline" fill="#FFFFFF" d="M71.291,7.221c-0.182,0.543-0.439,1.003-0.772,1.38s-0.729,0.667-1.192,0.87
			c-0.462,0.202-0.969,0.304-1.52,0.304c-0.559,0-1.068-0.1-1.526-0.298s-0.851-0.486-1.18-0.863
			c-0.328-0.377-0.583-0.835-0.766-1.374c-0.182-0.539-0.273-1.153-0.273-1.843c0-0.688,0.091-1.305,0.273-1.848
			c0.183-0.543,0.44-1.003,0.772-1.38c0.332-0.377,0.729-0.667,1.191-0.87c0.462-0.202,0.973-0.304,1.532-0.304
			c0.551,0,1.056,0.1,1.514,0.298c0.458,0.199,0.851,0.486,1.179,0.863c0.329,0.377,0.584,0.835,0.766,1.374
			c0.183,0.539,0.274,1.153,0.274,1.843C71.564,6.062,71.473,6.678,71.291,7.221z M69.254,3.391
			c-0.373-0.47-0.859-0.705-1.459-0.705c-0.6,0-1.081,0.23-1.441,0.693c-0.361,0.462-0.541,1.126-0.541,1.994
			c0,0.867,0.187,1.536,0.56,2.006c0.373,0.47,0.859,0.705,1.459,0.705s1.08-0.23,1.441-0.693c0.361-0.462,0.542-1.126,0.542-1.994
			C69.813,4.529,69.626,3.861,69.254,3.391z"/>
		<path display="inline" fill="#FFFFFF" d="M79.699,5.099c-0.154,0.353-0.37,0.643-0.646,0.87c-0.276,0.227-0.604,0.393-0.981,0.498
			c-0.377,0.105-0.786,0.158-1.225,0.158h-1.877v3.016h-1.69V1.129H77c0.397,0,0.774,0.055,1.131,0.164
			c0.356,0.109,0.669,0.278,0.936,0.505c0.268,0.227,0.479,0.509,0.632,0.845c0.154,0.337,0.231,0.731,0.231,1.186
			C79.931,4.323,79.853,4.746,79.699,5.099z M77.844,3.054c-0.224-0.173-0.527-0.259-0.909-0.259h-1.965v2.164h1.99
			c0.813,0,1.221-0.364,1.221-1.094C78.18,3.496,78.067,3.226,77.844,3.054z"/>
		<path display="inline" fill="#FFFFFF" d="M81.547,9.641V1.129h5.898v1.666h-4.208v1.459h2.444V5.92h-2.444v2.055h4.39v1.666
			H81.547z"/>
		<path display="inline" fill="#FFFFFF" d="M94.838,9.641l-3.125-4.645c-0.105-0.162-0.217-0.335-0.334-0.518
			c-0.118-0.182-0.205-0.33-0.262-0.443c0,0.081,0.002,0.2,0.006,0.358c0.004,0.158,0.006,0.331,0.006,0.517
			c0,0.179,0.002,0.357,0.006,0.535c0.004,0.179,0.006,0.328,0.006,0.45v3.745h-1.69V1.129h1.642l3.006,4.499
			c0.105,0.162,0.216,0.334,0.333,0.517s0.204,0.33,0.261,0.444c0-0.081-0.002-0.201-0.006-0.359
			c-0.004-0.158-0.006-0.326-0.006-0.504c0-0.187-0.002-0.369-0.006-0.548C94.67,5,94.668,4.85,94.668,4.729v-3.6h1.69v8.512H94.838
			z"/>
		<path display="inline" fill="#FFFFFF" d="M104.578,8.172c-0.129,0.332-0.332,0.617-0.608,0.856
			c-0.275,0.238-0.622,0.422-1.04,0.552s-0.918,0.194-1.502,0.194c-0.713,0-1.362-0.138-1.945-0.413
			c-0.584-0.276-1.038-0.653-1.362-1.131l1.228-1.095c0.3,0.349,0.634,0.598,1.003,0.748c0.369,0.149,0.76,0.225,1.174,0.225
			c0.511,0,0.885-0.073,1.125-0.219s0.359-0.381,0.359-0.705c0-0.138-0.024-0.258-0.073-0.359c-0.048-0.101-0.14-0.196-0.273-0.285
			s-0.326-0.175-0.578-0.256s-0.576-0.166-0.973-0.255c-0.389-0.089-0.748-0.194-1.076-0.316c-0.328-0.121-0.61-0.275-0.845-0.462
			c-0.235-0.187-0.417-0.421-0.547-0.705c-0.129-0.284-0.194-0.637-0.194-1.058c0-0.39,0.079-0.738,0.237-1.046
			c0.158-0.309,0.375-0.569,0.65-0.784c0.275-0.215,0.598-0.379,0.967-0.493c0.369-0.113,0.764-0.17,1.186-0.17
			c0.665,0,1.247,0.118,1.745,0.355c0.499,0.236,0.95,0.567,1.355,0.992l-1.228,1.193c-0.276-0.283-0.569-0.5-0.881-0.65
			c-0.312-0.149-0.663-0.225-1.052-0.225c-0.227,0-0.417,0.022-0.571,0.066c-0.154,0.045-0.28,0.104-0.377,0.177
			c-0.097,0.072-0.167,0.153-0.207,0.242c-0.041,0.089-0.061,0.183-0.061,0.279c0,0.138,0.026,0.253,0.079,0.346
			c0.053,0.094,0.144,0.177,0.273,0.249c0.13,0.073,0.304,0.142,0.523,0.206c0.219,0.065,0.499,0.138,0.839,0.219
			c0.341,0.081,0.679,0.177,1.016,0.285c0.336,0.109,0.64,0.262,0.912,0.455c0.271,0.194,0.492,0.441,0.663,0.741
			c0.17,0.299,0.255,0.68,0.255,1.141C104.773,7.472,104.708,7.841,104.578,8.172z"/>
		<path display="inline" fill="#FFFFFF" d="M109.844,2.795v6.846h-1.69V2.795h-2.444V1.129h6.579v1.666H109.844z"/>
		<path display="inline" fill="#FFFFFF" d="M118.453,9.641l-0.668-1.896h-3.113l-0.668,1.896h-1.824l3.259-8.512h1.654l3.234,8.512
			H118.453z M116.653,4.582c-0.089-0.251-0.172-0.494-0.25-0.729c-0.077-0.234-0.136-0.434-0.176-0.596
			c-0.041,0.162-0.099,0.361-0.176,0.596c-0.077,0.235-0.16,0.479-0.25,0.729l-0.547,1.544h1.945L116.653,4.582z"/>
		<path display="inline" fill="#FFFFFF" d="M126.466,3.609c-0.153-0.292-0.354-0.519-0.602-0.681s-0.565-0.243-0.954-0.243
			c-0.316,0-0.601,0.066-0.852,0.2s-0.462,0.32-0.633,0.56c-0.17,0.239-0.3,0.522-0.389,0.852c-0.089,0.328-0.134,0.69-0.134,1.088
			c0,0.381,0.045,0.735,0.134,1.063c0.089,0.329,0.221,0.614,0.396,0.857c0.174,0.243,0.387,0.434,0.638,0.571
			c0.252,0.139,0.535,0.207,0.852,0.207c0.389,0,0.707-0.085,0.954-0.255c0.248-0.171,0.484-0.446,0.712-0.827l1.435,0.852
			c-0.292,0.607-0.695,1.08-1.21,1.416c-0.515,0.337-1.161,0.505-1.939,0.505c-0.56,0-1.065-0.104-1.52-0.311
			c-0.454-0.206-0.846-0.5-1.174-0.881s-0.582-0.841-0.76-1.381c-0.179-0.539-0.268-1.145-0.268-1.817
			c0-0.648,0.093-1.242,0.279-1.781s0.446-1.001,0.778-1.387c0.333-0.385,0.729-0.685,1.192-0.899
			c0.462-0.215,0.973-0.322,1.531-0.322c0.397,0,0.759,0.047,1.083,0.14c0.324,0.094,0.614,0.224,0.869,0.39
			s0.479,0.364,0.669,0.596c0.19,0.23,0.354,0.484,0.492,0.76L126.466,3.609z"/>
		<path display="inline" fill="#FFFFFF" d="M135.112,9.641l-2.311-4.109l-1.362,1.604v2.505h-1.689V1.129h1.689v2.42
			c0,0.081,0,0.187,0,0.316c0,0.121-0.002,0.247-0.006,0.377s-0.008,0.255-0.012,0.377c-0.004,0.121-0.006,0.215-0.006,0.279
			c0.057-0.098,0.153-0.231,0.291-0.401s0.264-0.324,0.377-0.462l2.384-2.906h2.055l-2.492,2.942l3.125,5.569H135.112z"/>
		<path display="inline" fill="#FFFFFF" d="M148.555,7.312c-0.247,0.54-0.575,0.981-0.985,1.326
			c-0.409,0.345-0.875,0.598-1.397,0.76c-0.523,0.162-1.057,0.243-1.6,0.243h-2.541V1.129h2.663c0.607,0,1.169,0.075,1.684,0.225
			c0.515,0.15,0.961,0.396,1.338,0.736c0.377,0.34,0.673,0.78,0.888,1.319s0.322,1.197,0.322,1.976
			C148.926,6.131,148.802,6.773,148.555,7.312z M146.577,3.442c-0.399-0.432-1.05-0.647-1.953-0.647h-0.903v5.18h0.843
			c0.447,0,0.836-0.062,1.165-0.188s0.6-0.301,0.812-0.526s0.37-0.498,0.476-0.817c0.106-0.318,0.159-0.671,0.159-1.059
			C147.175,4.521,146.976,3.874,146.577,3.442z"/>
		<path display="inline" fill="#FFFFFF" d="M155.894,9.641l-0.669-1.896h-3.112l-0.669,1.896h-1.824l3.259-8.512h1.654l3.234,8.512
			H155.894z M154.094,4.582c-0.089-0.251-0.172-0.494-0.249-0.729c-0.077-0.234-0.136-0.434-0.176-0.596
			c-0.041,0.162-0.1,0.361-0.177,0.596c-0.077,0.235-0.16,0.479-0.249,0.729l-0.548,1.544h1.946L154.094,4.582z"/>
		<path display="inline" fill="#FFFFFF" d="M165.086,8.172c-0.13,0.332-0.332,0.617-0.607,0.856
			c-0.276,0.238-0.623,0.422-1.04,0.552c-0.418,0.13-0.918,0.194-1.502,0.194c-0.713,0-1.361-0.138-1.945-0.413
			c-0.584-0.276-1.038-0.653-1.362-1.131l1.229-1.095c0.3,0.349,0.634,0.598,1.003,0.748c0.369,0.149,0.76,0.225,1.174,0.225
			c0.511,0,0.886-0.073,1.125-0.219c0.238-0.146,0.358-0.381,0.358-0.705c0-0.138-0.024-0.258-0.073-0.359
			c-0.049-0.101-0.14-0.196-0.273-0.285s-0.326-0.175-0.577-0.256c-0.252-0.081-0.576-0.166-0.974-0.255
			c-0.389-0.089-0.747-0.194-1.076-0.316c-0.328-0.121-0.609-0.275-0.845-0.462s-0.418-0.421-0.547-0.705
			c-0.13-0.284-0.194-0.637-0.194-1.058c0-0.39,0.078-0.738,0.236-1.046c0.158-0.309,0.375-0.569,0.65-0.784
			c0.276-0.215,0.599-0.379,0.967-0.493c0.369-0.113,0.765-0.17,1.186-0.17c0.665,0,1.247,0.118,1.745,0.355
			c0.499,0.236,0.95,0.567,1.356,0.992l-1.229,1.193c-0.275-0.283-0.569-0.5-0.882-0.65c-0.312-0.149-0.662-0.225-1.052-0.225
			c-0.227,0-0.417,0.022-0.571,0.066c-0.154,0.045-0.279,0.104-0.377,0.177c-0.098,0.072-0.166,0.153-0.207,0.242
			c-0.04,0.089-0.061,0.183-0.061,0.279c0,0.138,0.026,0.253,0.079,0.346c0.053,0.094,0.144,0.177,0.273,0.249
			c0.13,0.073,0.304,0.142,0.523,0.206c0.219,0.065,0.498,0.138,0.839,0.219c0.34,0.081,0.679,0.177,1.015,0.285
			c0.337,0.109,0.641,0.262,0.912,0.455c0.271,0.194,0.493,0.441,0.663,0.741c0.17,0.299,0.255,0.68,0.255,1.141
			C165.28,7.472,165.216,7.841,165.086,8.172z"/>
		<path display="inline" fill="#FFFFFF" d="M172.273,9.641V6.065h-3.503v3.575h-1.689V1.129h1.689V4.4h3.503V1.129h1.689v8.512
			H172.273z"/>
		<path display="inline" fill="#FFFFFF" d="M182.84,8.078c-0.146,0.345-0.351,0.632-0.614,0.863s-0.582,0.405-0.955,0.522
			c-0.372,0.118-0.786,0.177-1.24,0.177h-3.866V1.129h3.903c0.826,0,1.483,0.192,1.97,0.577c0.486,0.386,0.729,0.942,0.729,1.673
			c0,0.364-0.079,0.688-0.237,0.973c-0.158,0.283-0.379,0.511-0.662,0.681c0.34,0.153,0.624,0.385,0.851,0.693
			c0.228,0.308,0.341,0.697,0.341,1.167C183.059,7.339,182.985,7.733,182.84,8.078z M180.797,2.915
			c-0.162-0.137-0.43-0.205-0.803-0.205h-2.164v1.604h2.249c0.356,0,0.606-0.074,0.748-0.223c0.142-0.149,0.213-0.34,0.213-0.573
			C181.04,3.253,180.959,3.052,180.797,2.915z M180.092,5.822h-2.262v2.201h2.262c0.413,0,0.719-0.1,0.918-0.298
			c0.198-0.198,0.298-0.469,0.298-0.809C181.308,6.188,180.902,5.822,180.092,5.822z"/>
		<path display="inline" fill="#FFFFFF" d="M191.468,7.221c-0.183,0.543-0.44,1.003-0.772,1.38c-0.333,0.377-0.729,0.667-1.191,0.87
			c-0.462,0.202-0.969,0.304-1.521,0.304c-0.56,0-1.068-0.1-1.525-0.298c-0.459-0.198-0.852-0.486-1.18-0.863
			c-0.329-0.377-0.584-0.835-0.767-1.374s-0.273-1.153-0.273-1.843c0-0.688,0.091-1.305,0.273-1.848s0.439-1.003,0.772-1.38
			c0.332-0.377,0.729-0.667,1.191-0.87c0.462-0.202,0.973-0.304,1.532-0.304c0.552,0,1.056,0.1,1.514,0.298
			c0.458,0.199,0.852,0.486,1.18,0.863s0.584,0.835,0.767,1.374c0.182,0.539,0.273,1.153,0.273,1.843
			C191.741,6.062,191.649,6.678,191.468,7.221z M189.431,3.391c-0.373-0.47-0.859-0.705-1.459-0.705
			c-0.601,0-1.081,0.23-1.441,0.693c-0.36,0.462-0.541,1.126-0.541,1.994c0,0.867,0.187,1.536,0.56,2.006s0.859,0.705,1.459,0.705
			s1.08-0.23,1.441-0.693c0.36-0.462,0.541-1.126,0.541-1.994C189.99,4.529,189.804,3.861,189.431,3.391z"/>
		<path display="inline" fill="#FFFFFF" d="M198.818,9.641l-0.669-1.896h-3.112l-0.669,1.896h-1.824l3.259-8.512h1.654l3.234,8.512
			H198.818z M197.019,4.582c-0.089-0.251-0.172-0.494-0.249-0.729c-0.077-0.234-0.136-0.434-0.176-0.596
			c-0.041,0.162-0.1,0.361-0.177,0.596c-0.077,0.235-0.16,0.479-0.249,0.729l-0.548,1.544h1.946L197.019,4.582z"/>
		<path display="inline" fill="#FFFFFF" d="M207.204,9.641l-1.523-3.064h-1.719v3.064h-1.689V1.129h3.964
			c0.397,0,0.774,0.055,1.131,0.164s0.669,0.278,0.937,0.505s0.478,0.509,0.632,0.845c0.154,0.337,0.231,0.731,0.231,1.186
			c0,0.641-0.136,1.166-0.407,1.574c-0.271,0.41-0.68,0.72-1.223,0.931l1.63,3.308H207.204z M207.093,3.043
			c-0.216-0.166-0.515-0.248-0.897-0.248h-2.233v2.176h2.233c0.813,0,1.221-0.366,1.221-1.1
			C207.416,3.484,207.308,3.208,207.093,3.043z"/>
		<path display="inline" fill="#FFFFFF" d="M217.478,7.312c-0.247,0.54-0.575,0.981-0.985,1.326
			c-0.409,0.345-0.875,0.598-1.397,0.76c-0.523,0.162-1.057,0.243-1.6,0.243h-2.541V1.129h2.663c0.607,0,1.169,0.075,1.684,0.225
			c0.515,0.15,0.961,0.396,1.338,0.736c0.377,0.34,0.673,0.78,0.888,1.319s0.322,1.197,0.322,1.976
			C217.849,6.131,217.725,6.773,217.478,7.312z M215.5,3.442c-0.399-0.432-1.05-0.647-1.953-0.647h-0.903v5.18h0.843
			c0.447,0,0.836-0.062,1.165-0.188s0.6-0.301,0.812-0.526s0.37-0.498,0.476-0.817c0.106-0.318,0.159-0.671,0.159-1.059
			C216.098,4.521,215.898,3.874,215.5,3.442z"/>
	</g>
</g>
</svg>
